<svg width="48" height="48" viewBox="0 0 48 48" fill="none" xmlns="http://www.w3.org/2000/svg">
<path d="M21.1984 38.613C30.6969 38.613 38.3969 30.8646 38.3969 21.3065C38.3969 11.7484 30.6969 4 21.1984 4C11.7 4 4 11.7484 4 21.3065C4 30.8646 11.7 38.613 21.1984 38.613Z" fill="#343674"/>
<path opacity="0.4" d="M41.3492 43.9106C40.6812 43.8889 40.0459 43.614 39.5707 43.141L35.4979 38.3804C34.6247 37.5818 34.5533 36.2247 35.3378 35.3379C35.705 34.9663 36.2043 34.7573 36.725 34.7573C37.2458 34.7573 37.7451 34.9663 38.1123 35.3379L43.2345 39.4363C43.9723 40.1915 44.2 41.3126 43.8158 42.2985C43.4315 43.2844 42.5072 43.9509 41.456 44L41.3492 43.9106Z" fill="#343674"/>
</svg>
